<?xml version="1.0" standalone="no"?>
<!DOCTYPE svg PUBLIC "-//W3C//DTD SVG 20010904//EN"
 "http://www.w3.org/TR/2001/REC-SVG-20010904/DTD/svg10.dtd">
<svg version="1.0" xmlns="http://www.w3.org/2000/svg"
 width="268.000000pt" height="314.000000pt" viewBox="0 0 268.000000 314.000000"
 preserveAspectRatio="xMidYMid meet">

<g transform="translate(0.000000,314.000000) scale(0.100000,-0.100000)"
fill="#000000" stroke="none">
<path d="M1210 2724 c-30 -8 -77 -25 -105 -38 -52 -24 -607 -343 -661 -380
-47 -32 -91 -88 -122 -152 l-27 -59 -3 -455 c-4 -477 0 -524 40 -604 35 -69
115 -137 258 -218 74 -42 217 -123 317 -181 205 -118 255 -140 366 -157 134
-20 257 6 397 85 100 56 354 202 505 291 108 63 166 118 203 193 l27 56 0 500
0 500 -27 57 c-37 79 -105 143 -223 210 -55 31 -156 89 -225 129 -69 40 -152
88 -185 107 -111 64 -194 102 -257 117 -79 19 -207 18 -278 -1z m301 -303 c45
-17 356 -189 553 -307 75 -45 88 -76 84 -211 -4 -136 -11 -148 -124 -214 -502
-291 -540 -309 -665 -309 -130 0 -185 21 -439 170 -69 40 -170 99 -225 131
-132 76 -135 81 -135 238 l0 124 37 35 c33 30 301 190 510 304 39 21 100 45
135 53 80 19 198 12 269 -14z"/>
<path d="M1293 2210 c-170 -34 -280 -218 -229 -381 26 -82 73 -139 147 -179
57 -31 72 -35 139 -35 125 1 219 59 272 170 41 87 40 178 -3 263 -34 69 -72
105 -144 138 -60 26 -125 35 -182 24z"/>
</g>
</svg>
